<svg xmlns="http://www.w3.org/2000/svg" width="128" height="128" viewBox="0 0 128 128"><title>STARK OS camera</title><defs>
<linearGradient id="metal" x1="0" y1="0" x2="0.9" y2="1"><stop stop-color="#b4eeff" stop-opacity="0.86"/><stop offset="0.15" stop-color="#69c2e7" stop-opacity="0.76"/><stop offset="0.56" stop-color="#4399c3" stop-opacity="0.66"/><stop offset="1" stop-color="#28698f" stop-opacity="0.8"/></linearGradient>
<linearGradient id="glass" x1="0" y1="0" x2="0.35" y2="1"><stop stop-color="#b4eeff" stop-opacity="0.76"/><stop offset="0.45" stop-color="#65c5ed" stop-opacity="0.5"/><stop offset="1" stop-color="#398fb6" stop-opacity="0.64"/></linearGradient>
<linearGradient id="bevel" x1="0" y1="0" x2="1" y2="1"><stop stop-color="#c8f5ff" stop-opacity="0.92"/><stop offset="0.45" stop-color="#4b9fc7" stop-opacity="0.7"/><stop offset="0.5" stop-color="#89dcf7" stop-opacity="0.86"/><stop offset="1" stop-color="#317da2" stop-opacity="0.82"/></linearGradient>
<linearGradient id="core" x1="0" y1="0" x2="0" y2="1"><stop stop-color="#edfcff"/><stop offset="0.45" stop-color="#9aeaff"/><stop offset="1" stop-color="#6fccea"/></linearGradient>
<radialGradient id="radial"><stop stop-color="#9deaff" stop-opacity="0.8"/><stop offset="0.65" stop-color="#4dadd5" stop-opacity="0.65"/><stop offset="1" stop-color="#276b94" stop-opacity="0.85"/></radialGradient>
</defs><g stroke-linejoin="round" stroke-linecap="round"><path d="M10 42L19 33H39L46 21H79L86 33H109L117 41V99L107 108H10Z" fill="none" stroke="#03101a" stroke-width="4" /><path d="M10 42L19 33H39L46 21H79L86 33H109L117 41V99L107 108H10Z" fill="url(#metal)" stroke="#9aeaff" stroke-width="1.7" /><path d="M19 34H39L47 22H79M11 43V99" fill="none" stroke="#edfcff" stroke-width="1" /><path d="M44 29H80M15 47H34M98 46H113M16 99H37" fill="none" stroke="#5bb6d7" stroke-width="1" /><rect x="94" y="39" width="15" height="7" rx="0" fill="#52aacb" stroke="#9aeaff" stroke-width="1"/><rect x="20" y="40" width="11" height="6" rx="0" fill="#183e56" stroke="#6fccea" stroke-width="1"/><circle cx="65" cy="71" r="30" fill="#183e56" stroke="#9aeaff" stroke-width="1.6" /><path d="M92.0 71.0L88.0 71.0" fill="none" stroke="#6fccea" stroke-width="1.5" /><path d="M91.59 75.689L89.62 75.341" fill="none" stroke="#6fccea" stroke-width="1" /><path d="M90.372 80.235L88.492 79.551" fill="none" stroke="#6fccea" stroke-width="1" /><path d="M88.383 84.5L86.651 83.5" fill="none" stroke="#6fccea" stroke-width="1" /><path d="M85.683 88.355L82.619 85.784" fill="none" stroke="#6fccea" stroke-width="1.5" /><path d="M82.355 91.683L81.07 90.151" fill="none" stroke="#6fccea" stroke-width="1" /><path d="M78.5 94.383L77.5 92.651" fill="none" stroke="#6fccea" stroke-width="1" /><path d="M74.235 96.372L73.551 94.492" fill="none" stroke="#6fccea" stroke-width="1" /><path d="M69.689 97.59L68.994 93.651" fill="none" stroke="#6fccea" stroke-width="1.5" /><path d="M65.0 98.0L65.0 96.0" fill="none" stroke="#6fccea" stroke-width="1" /><path d="M60.311 97.59L60.659 95.62" fill="none" stroke="#6fccea" stroke-width="1" /><path d="M55.765 96.372L56.449 94.492" fill="none" stroke="#6fccea" stroke-width="1" /><path d="M51.5 94.383L53.5 90.919" fill="none" stroke="#6fccea" stroke-width="1.5" /><path d="M47.645 91.683L48.93 90.151" fill="none" stroke="#6fccea" stroke-width="1" /><path d="M44.317 88.355L45.849 87.07" fill="none" stroke="#6fccea" stroke-width="1" /><path d="M41.617 84.5L43.349 83.5" fill="none" stroke="#6fccea" stroke-width="1" /><path d="M39.628 80.235L43.387 78.866" fill="none" stroke="#6fccea" stroke-width="1.5" /><path d="M38.41 75.689L40.38 75.341" fill="none" stroke="#6fccea" stroke-width="1" /><path d="M38.0 71.0L40.0 71.0" fill="none" stroke="#6fccea" stroke-width="1" /><path d="M38.41 66.311L40.38 66.659" fill="none" stroke="#6fccea" stroke-width="1" /><path d="M39.628 61.765L43.387 63.134" fill="none" stroke="#6fccea" stroke-width="1.5" /><path d="M41.617 57.5L43.349 58.5" fill="none" stroke="#6fccea" stroke-width="1" /><path d="M44.317 53.645L45.849 54.93" fill="none" stroke="#6fccea" stroke-width="1" /><path d="M47.645 50.317L48.93 51.849" fill="none" stroke="#6fccea" stroke-width="1" /><path d="M51.5 47.617L53.5 51.081" fill="none" stroke="#6fccea" stroke-width="1.5" /><path d="M55.765 45.628L56.449 47.508" fill="none" stroke="#6fccea" stroke-width="1" /><path d="M60.311 44.41L60.659 46.38" fill="none" stroke="#6fccea" stroke-width="1" /><path d="M65.0 44.0L65.0 46.0" fill="none" stroke="#6fccea" stroke-width="1" /><path d="M69.689 44.41L68.994 48.349" fill="none" stroke="#6fccea" stroke-width="1.5" /><path d="M74.235 45.628L73.551 47.508" fill="none" stroke="#6fccea" stroke-width="1" /><path d="M78.5 47.617L77.5 49.349" fill="none" stroke="#6fccea" stroke-width="1" /><path d="M82.355 50.317L81.07 51.849" fill="none" stroke="#6fccea" stroke-width="1" /><path d="M85.683 53.645L82.619 56.216" fill="none" stroke="#6fccea" stroke-width="1.5" /><path d="M88.383 57.5L86.651 58.5" fill="none" stroke="#6fccea" stroke-width="1" /><path d="M90.372 61.765L88.492 62.449" fill="none" stroke="#6fccea" stroke-width="1" /><path d="M91.59 66.311L89.62 66.659" fill="none" stroke="#6fccea" stroke-width="1" /><circle cx="65" cy="71" r="21" fill="url(#radial)" stroke="#edfcff" stroke-width="1.4" /><circle cx="65" cy="71" r="16" fill="#183e56" stroke="#6fccea" stroke-width="1" /><path d="M80.0 71.0L68.5 77.062L57.5 83.99" fill="none" stroke="#9aeaff" stroke-width="0.9" /><path d="M72.5 83.99L61.5 77.062L50.0 71.0" fill="none" stroke="#9aeaff" stroke-width="0.9" /><path d="M57.5 83.99L58.0 71.0L57.5 58.01" fill="none" stroke="#9aeaff" stroke-width="0.9" /><path d="M50.0 71.0L61.5 64.938L72.5 58.01" fill="none" stroke="#9aeaff" stroke-width="0.9" /><path d="M57.5 58.01L68.5 64.938L80.0 71.0" fill="none" stroke="#9aeaff" stroke-width="0.9" /><path d="M72.5 58.01L72.0 71.0L72.5 83.99" fill="none" stroke="#9aeaff" stroke-width="0.9" /><circle cx="60" cy="66" r="3" fill="#edfcff" stroke="none" stroke-width="1.5" /><circle cx="20" cy="97" r="2.2" fill="#183e56" stroke="#5bb6d7" stroke-width="0.8" /><path d="M19 97L21 97" fill="none" stroke="#6fccea" stroke-width="0.65" /><circle cx="107" cy="97" r="2.2" fill="#183e56" stroke="#5bb6d7" stroke-width="0.8" /><path d="M106 97L108 97" fill="none" stroke="#6fccea" stroke-width="0.65" /></g></svg>
