<svg xmlns="http://www.w3.org/2000/svg" width="128" height="128" viewBox="0 0 128 128"><title>STARK OS globe</title><defs>
<linearGradient id="metal" x1="0" y1="0" x2="0.9" y2="1"><stop stop-color="#b4eeff" stop-opacity="0.86"/><stop offset="0.15" stop-color="#69c2e7" stop-opacity="0.76"/><stop offset="0.56" stop-color="#4399c3" stop-opacity="0.66"/><stop offset="1" stop-color="#28698f" stop-opacity="0.8"/></linearGradient>
<linearGradient id="glass" x1="0" y1="0" x2="0.35" y2="1"><stop stop-color="#b4eeff" stop-opacity="0.76"/><stop offset="0.45" stop-color="#65c5ed" stop-opacity="0.5"/><stop offset="1" stop-color="#398fb6" stop-opacity="0.64"/></linearGradient>
<linearGradient id="bevel" x1="0" y1="0" x2="1" y2="1"><stop stop-color="#c8f5ff" stop-opacity="0.92"/><stop offset="0.45" stop-color="#4b9fc7" stop-opacity="0.7"/><stop offset="0.5" stop-color="#89dcf7" stop-opacity="0.86"/><stop offset="1" stop-color="#317da2" stop-opacity="0.82"/></linearGradient>
<linearGradient id="core" x1="0" y1="0" x2="0" y2="1"><stop stop-color="#edfcff"/><stop offset="0.45" stop-color="#9aeaff"/><stop offset="1" stop-color="#6fccea"/></linearGradient>
<radialGradient id="radial"><stop stop-color="#9deaff" stop-opacity="0.8"/><stop offset="0.65" stop-color="#4dadd5" stop-opacity="0.65"/><stop offset="1" stop-color="#276b94" stop-opacity="0.85"/></radialGradient>
</defs><g stroke-linejoin="round" stroke-linecap="round"><circle cx="64" cy="64" r="51" fill="url(#radial)" stroke="#03101a" stroke-width="4" /><circle cx="64" cy="64" r="50" fill="url(#radial)" stroke="#9aeaff" stroke-width="1.7" /><ellipse cx="64" cy="64" rx="25" ry="49" fill="none" stroke="#6fccea" stroke-width="1.2"/><ellipse cx="64" cy="64" rx="42" ry="49" fill="none" stroke="#327590" stroke-width="1"/><path d="M17 45Q64 26 111 45M14 64H114M17 83Q64 102 111 83M64 15V113" fill="none" stroke="#6fccea" stroke-width="1.2" /><path d="M28 41L45 30L60 33L66 42L57 49L60 61L48 67L38 62L36 50Z" fill="#52aacb" stroke="#9aeaff" stroke-width="1" /><path d="M72 57L88 49L99 60L91 73L80 76L77 94L68 104L65 80Z" fill="#52aacb" stroke="#9aeaff" stroke-width="1" /><path d="M9.677 55.396A55 55 0 0 1 48.84 11.131" fill="none" stroke="#edfcff" stroke-width="1.8" /><path d="M118.164 73.551A55 55 0 0 1 78.235 117.126" fill="none" stroke="#edfcff" stroke-width="1.8" /><circle cx="111" cy="94" r="3" fill="#9aeaff" stroke="#03101a" stroke-width="1.5" /><path d="M93 90L108 94" fill="none" stroke="#9aeaff" stroke-width="1" /></g></svg>
