<?xml version="1.0" encoding="UTF-8"?>
<svg xmlns="http://www.w3.org/2000/svg" version="1.1" width="383" height="20" viewBox="0 0 383 20">
<defs></defs>
<g id="normal-topleft" transform="translate(0,0)"><rect x="0" y="0" width="4" height="4" fill="#000000" fill-opacity="0.001"/><polygon points="3,0 4,0 4,4 0,4 0,3" fill="#03101a" fill-opacity="1"/><rect x="3" y="0" width="1" height="1" fill="#5fe3ff" fill-opacity="0.3"/><rect x="0" y="3" width="1" height="1" fill="#5fe3ff" fill-opacity="0.3"/><g transform="translate(0,0)"><path d="M 0.5 3 L 3 0.5" fill="none" stroke="#5fe3ff" stroke-opacity="0.3" stroke-width="1" stroke-linecap="square"/></g></g>
<g id="normal-top" transform="translate(10,0)"><rect x="0" y="0" width="16" height="4" fill="#000000" fill-opacity="0.001"/><rect x="0" y="0" width="16" height="4" fill="#03101a" fill-opacity="1"/><rect x="0" y="0" width="16" height="1" fill="#5fe3ff" fill-opacity="0.3"/></g>
<g id="normal-topright" transform="translate(32,0)"><rect x="0" y="0" width="4" height="4" fill="#000000" fill-opacity="0.001"/><rect x="0" y="0" width="4" height="4" fill="#03101a" fill-opacity="1"/><rect x="0" y="0" width="4" height="1" fill="#5fe3ff" fill-opacity="0.3"/><rect x="3" y="0" width="1" height="4" fill="#5fe3ff" fill-opacity="0.3"/></g>
<g id="normal-left" transform="translate(42,0)"><rect x="0" y="0" width="4" height="16" fill="#000000" fill-opacity="0.001"/><rect x="0" y="0" width="4" height="16" fill="#03101a" fill-opacity="1"/><rect x="0" y="0" width="1" height="16" fill="#5fe3ff" fill-opacity="0.3"/></g>
<g id="normal-center" transform="translate(52,0)"><rect x="0" y="0" width="16" height="16" fill="#000000" fill-opacity="0.001"/><rect x="0" y="0" width="16" height="16" fill="#03101a" fill-opacity="1"/></g>
<g id="normal-right" transform="translate(74,0)"><rect x="0" y="0" width="4" height="16" fill="#000000" fill-opacity="0.001"/><rect x="0" y="0" width="4" height="16" fill="#03101a" fill-opacity="1"/><rect x="3" y="0" width="1" height="16" fill="#5fe3ff" fill-opacity="0.3"/></g>
<g id="normal-bottomleft" transform="translate(84,0)"><rect x="0" y="0" width="4" height="4" fill="#000000" fill-opacity="0.001"/><rect x="0" y="0" width="4" height="4" fill="#03101a" fill-opacity="1"/><rect x="0" y="0" width="1" height="4" fill="#5fe3ff" fill-opacity="0.3"/><rect x="0" y="3" width="4" height="1" fill="#5fe3ff" fill-opacity="0.3"/></g>
<g id="normal-bottom" transform="translate(94,0)"><rect x="0" y="0" width="16" height="4" fill="#000000" fill-opacity="0.001"/><rect x="0" y="0" width="16" height="4" fill="#03101a" fill-opacity="1"/><rect x="0" y="3" width="16" height="1" fill="#5fe3ff" fill-opacity="0.3"/></g>
<g id="normal-bottomright" transform="translate(116,0)"><rect x="0" y="0" width="4" height="4" fill="#000000" fill-opacity="0.001"/><polygon points="0,0 4,0 4,1 1,4 0,4" fill="#03101a" fill-opacity="1"/><rect x="0" y="3" width="1" height="1" fill="#5fe3ff" fill-opacity="0.3"/><rect x="3" y="0" width="1" height="1" fill="#5fe3ff" fill-opacity="0.3"/><g transform="translate(-20,-20)"><path d="M 21 23.5 L 23.5 21" fill="none" stroke="#5fe3ff" stroke-opacity="0.3" stroke-width="1" stroke-linecap="square"/></g></g>
<g id="hover-topleft" transform="translate(126,0)"><rect x="0" y="0" width="4" height="4" fill="#000000" fill-opacity="0.001"/><polygon points="3,0 4,0 4,4 0,4 0,3" fill="#0b2436" fill-opacity="1"/><rect x="3" y="0" width="1" height="1" fill="#5fe3ff" fill-opacity="0.65"/><rect x="0" y="3" width="1" height="1" fill="#5fe3ff" fill-opacity="0.65"/><g transform="translate(0,0)"><path d="M 0.5 3 L 3 0.5" fill="none" stroke="#5fe3ff" stroke-opacity="0.65" stroke-width="1" stroke-linecap="square"/></g></g>
<g id="hover-top" transform="translate(136,0)"><rect x="0" y="0" width="16" height="4" fill="#000000" fill-opacity="0.001"/><rect x="0" y="0" width="16" height="4" fill="#0b2436" fill-opacity="1"/><rect x="0" y="0" width="16" height="1" fill="#5fe3ff" fill-opacity="0.65"/></g>
<g id="hover-topright" transform="translate(158,0)"><rect x="0" y="0" width="4" height="4" fill="#000000" fill-opacity="0.001"/><rect x="0" y="0" width="4" height="4" fill="#0b2436" fill-opacity="1"/><rect x="0" y="0" width="4" height="1" fill="#5fe3ff" fill-opacity="0.65"/><rect x="3" y="0" width="1" height="4" fill="#5fe3ff" fill-opacity="0.65"/></g>
<g id="hover-left" transform="translate(168,0)"><rect x="0" y="0" width="4" height="16" fill="#000000" fill-opacity="0.001"/><rect x="0" y="0" width="4" height="16" fill="#0b2436" fill-opacity="1"/><rect x="0" y="0" width="1" height="16" fill="#5fe3ff" fill-opacity="0.65"/></g>
<g id="hover-center" transform="translate(178,0)"><rect x="0" y="0" width="16" height="16" fill="#000000" fill-opacity="0.001"/><rect x="0" y="0" width="16" height="16" fill="#0b2436" fill-opacity="1"/></g>
<g id="hover-right" transform="translate(200,0)"><rect x="0" y="0" width="4" height="16" fill="#000000" fill-opacity="0.001"/><rect x="0" y="0" width="4" height="16" fill="#0b2436" fill-opacity="1"/><rect x="3" y="0" width="1" height="16" fill="#5fe3ff" fill-opacity="0.65"/></g>
<g id="hover-bottomleft" transform="translate(210,0)"><rect x="0" y="0" width="4" height="4" fill="#000000" fill-opacity="0.001"/><rect x="0" y="0" width="4" height="4" fill="#0b2436" fill-opacity="1"/><rect x="0" y="0" width="1" height="4" fill="#5fe3ff" fill-opacity="0.65"/><rect x="0" y="3" width="4" height="1" fill="#5fe3ff" fill-opacity="0.65"/></g>
<g id="hover-bottom" transform="translate(220,0)"><rect x="0" y="0" width="16" height="4" fill="#000000" fill-opacity="0.001"/><rect x="0" y="0" width="16" height="4" fill="#0b2436" fill-opacity="1"/><rect x="0" y="3" width="16" height="1" fill="#5fe3ff" fill-opacity="0.65"/></g>
<g id="hover-bottomright" transform="translate(242,0)"><rect x="0" y="0" width="4" height="4" fill="#000000" fill-opacity="0.001"/><polygon points="0,0 4,0 4,1 1,4 0,4" fill="#0b2436" fill-opacity="1"/><rect x="0" y="3" width="1" height="1" fill="#5fe3ff" fill-opacity="0.65"/><rect x="3" y="0" width="1" height="1" fill="#5fe3ff" fill-opacity="0.65"/><g transform="translate(-20,-20)"><path d="M 21 23.5 L 23.5 21" fill="none" stroke="#5fe3ff" stroke-opacity="0.65" stroke-width="1" stroke-linecap="square"/></g></g>
<g id="active-topleft" transform="translate(252,0)"><rect x="0" y="0" width="4" height="4" fill="#000000" fill-opacity="0.001"/><polygon points="3,0 4,0 4,4 0,4 0,3" fill="#12546a" fill-opacity="1"/><rect x="3" y="0" width="1" height="1" fill="#5fe3ff" fill-opacity="1"/><rect x="0" y="3" width="1" height="1" fill="#5fe3ff" fill-opacity="1"/><g transform="translate(0,0)"><path d="M 0.5 3 L 3 0.5" fill="none" stroke="#5fe3ff" stroke-opacity="1" stroke-width="1" stroke-linecap="square"/></g></g>
<g id="active-top" transform="translate(262,0)"><rect x="0" y="0" width="16" height="4" fill="#000000" fill-opacity="0.001"/><rect x="0" y="0" width="16" height="4" fill="#12546a" fill-opacity="1"/><rect x="0" y="0" width="16" height="1" fill="#5fe3ff" fill-opacity="1"/></g>
<g id="active-topright" transform="translate(284,0)"><rect x="0" y="0" width="4" height="4" fill="#000000" fill-opacity="0.001"/><rect x="0" y="0" width="4" height="4" fill="#12546a" fill-opacity="1"/><rect x="0" y="0" width="4" height="1" fill="#5fe3ff" fill-opacity="1"/><rect x="3" y="0" width="1" height="4" fill="#5fe3ff" fill-opacity="1"/></g>
<g id="active-left" transform="translate(294,0)"><rect x="0" y="0" width="4" height="16" fill="#000000" fill-opacity="0.001"/><rect x="0" y="0" width="4" height="16" fill="#12546a" fill-opacity="1"/><rect x="0" y="0" width="1" height="16" fill="#5fe3ff" fill-opacity="1"/></g>
<g id="active-center" transform="translate(304,0)"><rect x="0" y="0" width="16" height="16" fill="#000000" fill-opacity="0.001"/><rect x="0" y="0" width="16" height="16" fill="#12546a" fill-opacity="1"/></g>
<g id="active-right" transform="translate(326,0)"><rect x="0" y="0" width="4" height="16" fill="#000000" fill-opacity="0.001"/><rect x="0" y="0" width="4" height="16" fill="#12546a" fill-opacity="1"/><rect x="3" y="0" width="1" height="16" fill="#5fe3ff" fill-opacity="1"/></g>
<g id="active-bottomleft" transform="translate(336,0)"><rect x="0" y="0" width="4" height="4" fill="#000000" fill-opacity="0.001"/><rect x="0" y="0" width="4" height="4" fill="#12546a" fill-opacity="1"/><rect x="0" y="0" width="1" height="4" fill="#5fe3ff" fill-opacity="1"/><rect x="0" y="3" width="4" height="1" fill="#5fe3ff" fill-opacity="1"/><rect x="0" y="2" width="4" height="2" fill="#5fe3ff" fill-opacity="1"/></g>
<g id="active-bottom" transform="translate(346,0)"><rect x="0" y="0" width="16" height="4" fill="#000000" fill-opacity="0.001"/><rect x="0" y="0" width="16" height="4" fill="#12546a" fill-opacity="1"/><rect x="0" y="3" width="16" height="1" fill="#5fe3ff" fill-opacity="1"/><rect x="0" y="2" width="16" height="2" fill="#5fe3ff" fill-opacity="1"/></g>
<g id="active-bottomright" transform="translate(368,0)"><rect x="0" y="0" width="4" height="4" fill="#000000" fill-opacity="0.001"/><polygon points="0,0 4,0 4,1 1,4 0,4" fill="#12546a" fill-opacity="1"/><rect x="0" y="3" width="1" height="1" fill="#5fe3ff" fill-opacity="1"/><rect x="3" y="0" width="1" height="1" fill="#5fe3ff" fill-opacity="1"/><rect x="0" y="2" width="4" height="2" fill="#5fe3ff" fill-opacity="1"/><g transform="translate(-20,-20)"><path d="M 21 23.5 L 23.5 21" fill="none" stroke="#5fe3ff" stroke-opacity="1" stroke-width="1" stroke-linecap="square"/></g></g>
<rect id="hint-tile-center" x="378" y="0" width="1" height="1" fill="#000000" fill-opacity="0.001"/>
</svg>
