<svg xmlns="http://www.w3.org/2000/svg" width="128" height="128" viewBox="0 0 128 128"><title>STARK OS printer</title><defs>
<linearGradient id="metal" x1="0" y1="0" x2="0.9" y2="1"><stop stop-color="#b4eeff" stop-opacity="0.86"/><stop offset="0.15" stop-color="#69c2e7" stop-opacity="0.76"/><stop offset="0.56" stop-color="#4399c3" stop-opacity="0.66"/><stop offset="1" stop-color="#28698f" stop-opacity="0.8"/></linearGradient>
<linearGradient id="glass" x1="0" y1="0" x2="0.35" y2="1"><stop stop-color="#b4eeff" stop-opacity="0.76"/><stop offset="0.45" stop-color="#65c5ed" stop-opacity="0.5"/><stop offset="1" stop-color="#398fb6" stop-opacity="0.64"/></linearGradient>
<linearGradient id="bevel" x1="0" y1="0" x2="1" y2="1"><stop stop-color="#c8f5ff" stop-opacity="0.92"/><stop offset="0.45" stop-color="#4b9fc7" stop-opacity="0.7"/><stop offset="0.5" stop-color="#89dcf7" stop-opacity="0.86"/><stop offset="1" stop-color="#317da2" stop-opacity="0.82"/></linearGradient>
<linearGradient id="core" x1="0" y1="0" x2="0" y2="1"><stop stop-color="#edfcff"/><stop offset="0.45" stop-color="#9aeaff"/><stop offset="1" stop-color="#6fccea"/></linearGradient>
<radialGradient id="radial"><stop stop-color="#9deaff" stop-opacity="0.8"/><stop offset="0.65" stop-color="#4dadd5" stop-opacity="0.65"/><stop offset="1" stop-color="#276b94" stop-opacity="0.85"/></radialGradient>
</defs><g stroke-linejoin="round" stroke-linecap="round"><path d="M33 14H94V57H33Z" fill="url(#metal)" stroke="#03101a" stroke-width="4" /><path d="M33 14H94V57H33Z" fill="url(#metal)" stroke="#9aeaff" stroke-width="1.5" /><path d="M41 25H83M41 32H75" fill="none" stroke="#6fccea" stroke-width="1.5" /><path d="M18 45H118V92L110 100H10V53Z" fill="none" stroke="#03101a" stroke-width="4" /><path d="M18 45H118V92L110 100H10V53Z" fill="url(#metal)" stroke="#9aeaff" stroke-width="1.7" /><path d="M18 46H117M11 53V90" fill="none" stroke="#edfcff" stroke-width="1" /><path d="M20 61H108M21 84H108" fill="none" stroke="#5bb6d7" stroke-width="1" /><circle cx="101" cy="54" r="2.5" fill="#6dffb3" stroke="#03101a" stroke-width="0.7" /><path d="M30 73H98L103 116H25Z" fill="url(#glass)" stroke="#9aeaff" stroke-width="1.5" /><path d="M40 88H88M39 96H89M39 104H75" fill="none" stroke="#edfcff" stroke-width="1.4" /><circle cx="20" cy="91" r="2.2" fill="#183e56" stroke="#5bb6d7" stroke-width="0.8" /><path d="M19 91L21 91" fill="none" stroke="#6fccea" stroke-width="0.65" /><circle cx="108" cy="91" r="2.2" fill="#183e56" stroke="#5bb6d7" stroke-width="0.8" /><path d="M107 91L109 91" fill="none" stroke="#6fccea" stroke-width="0.65" /></g></svg>
