<svg xmlns="http://www.w3.org/2000/svg" width="128" height="128" viewBox="0 0 128 128"><title>STARK OS error</title><defs>
<linearGradient id="metal" x1="0" y1="0" x2="0.9" y2="1"><stop stop-color="#b4eeff" stop-opacity="0.86"/><stop offset="0.15" stop-color="#69c2e7" stop-opacity="0.76"/><stop offset="0.56" stop-color="#4399c3" stop-opacity="0.66"/><stop offset="1" stop-color="#28698f" stop-opacity="0.8"/></linearGradient>
<linearGradient id="glass" x1="0" y1="0" x2="0.35" y2="1"><stop stop-color="#b4eeff" stop-opacity="0.76"/><stop offset="0.45" stop-color="#65c5ed" stop-opacity="0.5"/><stop offset="1" stop-color="#398fb6" stop-opacity="0.64"/></linearGradient>
<linearGradient id="bevel" x1="0" y1="0" x2="1" y2="1"><stop stop-color="#c8f5ff" stop-opacity="0.92"/><stop offset="0.45" stop-color="#4b9fc7" stop-opacity="0.7"/><stop offset="0.5" stop-color="#89dcf7" stop-opacity="0.86"/><stop offset="1" stop-color="#317da2" stop-opacity="0.82"/></linearGradient>
<linearGradient id="core" x1="0" y1="0" x2="0" y2="1"><stop stop-color="#edfcff"/><stop offset="0.45" stop-color="#9aeaff"/><stop offset="1" stop-color="#6fccea"/></linearGradient>
<radialGradient id="radial"><stop stop-color="#9deaff" stop-opacity="0.8"/><stop offset="0.65" stop-color="#4dadd5" stop-opacity="0.65"/><stop offset="1" stop-color="#276b94" stop-opacity="0.85"/></radialGradient>
</defs><g stroke-linejoin="round" stroke-linecap="round"><path d="M42 12H86L116 42V86L86 116H42L12 86V42Z" fill="none" stroke="#03101a" stroke-width="4" /><path d="M42 12H86L116 42V86L86 116H42L12 86V42Z" fill="url(#metal)" stroke="#9aeaff" stroke-width="1.7" /><path d="M42 12H86L116 42V86L86 116H42L12 86V42Z" fill="url(#metal)" stroke="#ff4d5e" stroke-width="2" /><path d="M46 18H82L110 46V82L82 110H46L18 82V46Z" fill="none" stroke="#ff4d5e" stroke-width="0.7" /><path d="M44 44L84 84M44 84L84 44" fill="none" stroke="#edfcff" stroke-width="4" /></g></svg>
